<svg xmlns="http://www.w3.org/2000/svg" version="1.1" xmlns:xlink="http://www.w3.org/1999/xlink" xmlns:svgjs="http://svgjs.dev/svgjs" viewBox="0 0 800 800" opacity="1"><defs><linearGradient x1="50%" y1="0%" x2="50%" y2="100%" id="wwwhirl-grad"><stop stop-color="#f7dfc3ff" stop-opacity="1" offset="45%"></stop><stop stop-color="hsla(331, 33%, 78%, 1.00)" stop-opacity="1" offset="100%"></stop></linearGradient></defs><g stroke-width="1" stroke="url(#wwwhirl-grad)" fill="none" stroke-linecap="round"><path d="M-373.5 516.4206412506103C-336.66666666666663 484.37564125061033 -226.16666666666669 332.622307917277 -152.5 324.15064125061036C-78.83333333333331 315.67897458394367 -5.166666666666629 481.79730791727707 68.5 465.59064125061036C142.16666666666663 449.38397458394365 215.83333333333337 208.862307917277 289.5 226.91064125061035C363.16666666666663 244.95897458394367 436.83333333333337 565.4089745839437 510.5 573.8806412506103C584.1666666666667 582.3523079172769 657.8333333333333 280.687307917277 731.5 277.74064125061034C805.1666666666667 274.7939745839437 878.8333333333333 555.4639745839438 952.5 556.2006412506104C1026.1666666666667 556.9373079172769 1136.6666666666667 327.8339745839437 1173.5 282.16064125061035 " transform="rotate(144.5, 400, 400)"></path><path d="M-350.75 512.9965103530884C-315 481.89401035308845 -207.75000000000003 334.60401035308837 -136.25 326.3815103530884C-64.75 318.15901035308843 6.750000000000057 479.3915103530884 78.25 463.6615103530884C149.75 447.93151035308836 221.25 214.48401035308837 292.75 232.00151035308838C364.25 249.5190103530884 435.75 560.5440103530884 507.25 568.7665103530885C578.75 576.9890103530884 650.25 284.1965103530884 721.75 281.3365103530884C793.25 278.4765103530884 864.75 550.8915103530885 936.25 551.6065103530884C1007.75 552.3215103530883 1115 329.9565103530884 1150.75 285.6265103530884 " transform="rotate(140.25, 400, 400)"></path><path d="M-328 509.57240997314454C-293.3333333333333 479.4124099731446 -189.33333333333334 336.58574330647787 -120 328.6124099731445C-50.66666666666663 320.6390766398112 18.666666666666686 476.9857433064779 88 461.7324099731445C157.33333333333326 446.4790766398112 226.66666666666674 220.10574330647785 296 237.09240997314453C365.33333333333326 254.0790766398112 434.66666666666674 555.6790766398112 504 563.6524099731446C573.3333333333334 571.6257433064778 642.6666666666665 287.70574330647787 712 284.93240997314456C781.3333333333335 282.1590766398112 850.6666666666665 546.3190766398113 920 547.0124099731445C989.3333333333335 547.7057433064779 1093.3333333333335 332.0790766398112 1128 289.0924099731445 " transform="rotate(136, 400, 400)"></path><path d="M-305.25 506.14826381683355C-271.66666666666663 476.9307638168335 -170.91666666666669 338.5674304835002 -103.75 330.8432638168335C-36.583333333333314 323.11909715016685 30.58333333333337 474.5799304835002 97.75 459.8032638168335C164.91666666666663 445.0265971501668 232.08333333333337 225.72743048350014 299.25 242.18326381683352C366.41666666666663 258.63909715016683 433.58333333333337 550.8140971501668 500.75 558.5382638168335C567.9166666666667 566.2624304835001 635.0833333333333 291.21493048350015 702.25 288.5282638168335C769.4166666666667 285.8415971501668 836.5833333333333 541.746597150167 903.75 542.4182638168336C970.9166666666667 543.0899304835002 1071.6666666666667 334.20159715016683 1105.25 292.5582638168335 " transform="rotate(131.75, 400, 400)"></path><path d="M-282.5 502.7241329193115C-250 474.4491329193115 -152.50000000000003 340.54913291931155 -87.5 333.0741329193115C-22.5 325.59913291931156 42.50000000000006 472.17413291931155 107.5 457.8741329193116C172.5 443.5741329193115 237.5 231.3491329193115 302.5 247.2741329193115C367.5 263.1991329193115 432.5 545.9491329193115 497.5 553.4241329193115C562.5 560.8991329193116 627.5 294.7241329193115 692.5 292.12413291931153C757.5 289.5241329193115 822.5 537.1741329193117 887.5 537.8241329193115C952.5 538.4741329193115 1050 336.3241329193115 1082.5 296.0241329193115 " transform="rotate(127.5, 400, 400)"></path><path d="M-259.75 499.2999257278442C-228.33333333333331 471.9674257278442 -134.08333333333334 342.53075906117755 -71.25 335.30492572784425C-8.416666666666629 328.0790923945109 54.416666666666686 469.76825906117756 117.25 455.94492572784424C180.08333333333326 442.1215923945109 242.91666666666674 236.97075906117755 305.75 252.36492572784425C368.58333333333326 267.7590923945109 431.41666666666674 541.0840923945109 494.25 548.3099257278443C557.0833333333334 555.5357590611775 619.9166666666666 298.2332590611776 682.75 295.7199257278442C745.5833333333335 293.2065923945109 808.4166666666665 532.6015923945109 871.25 533.2299257278443C934.0833333333335 533.8582590611775 1028.3333333333335 338.4465923945109 1059.75 299.48992572784425 " transform="rotate(123.25, 400, 400)"></path><path d="M-237 495.87585586547857C-206.66666666666666 469.4858558654786 -115.66666666666669 344.51252253214517 -55 337.53585586547854C5.666666666666686 330.55918919881185 66.33333333333337 467.36252253214525 127 454.01585586547856C187.66666666666663 440.66918919881186 248.33333333333337 242.59252253214515 309 257.4558558654785C369.66666666666663 272.31918919881184 430.33333333333337 536.2191891988118 491 543.1958558654785C551.6666666666667 550.1725225321452 612.3333333333333 301.7425225321452 673 299.3158558654785C733.6666666666667 296.88918919881183 794.3333333333333 528.029189198812 855 528.6358558654786C915.6666666666667 529.2425225321451 1006.6666666666667 340.56918919881184 1037 302.9558558654785 " transform="rotate(119, 400, 400)"></path><path d="M-214.25 492.4516868209839C-185 467.0041868209839 -97.25 346.4941868209839 -38.75 339.76668682098386C19.75 333.0391868209839 78.25000000000006 464.9566868209839 136.75 452.0866868209839C195.25 439.2166868209839 253.75 248.21418682098388 312.25 262.5466868209839C370.75 276.8791868209839 429.25 531.3541868209838 487.75 538.0816868209839C546.25 544.8091868209838 604.75 305.2516868209839 663.25 302.9116868209839C721.75 300.57168682098387 780.25 523.4566868209839 838.75 524.0416868209838C897.25 524.6266868209839 985 342.6916868209839 1014.25 306.4216868209839 " transform="rotate(114.75, 400, 400)"></path><path d="M-191.5 489.02756355285646C-163.33333333333331 464.52256355285647 -78.83333333333334 348.4758968861898 -22.5 341.99756355285643C33.83333333333337 335.51923021952314 90.16666666666669 462.55089688618983 146.5 450.15756355285646C202.83333333333331 437.76423021952314 259.16666666666674 253.83589688618977 315.5 267.6375635528565C371.83333333333326 281.4392302195231 428.16666666666674 526.4892302195232 484.5 532.9675635528565C540.8333333333334 539.4458968861898 597.1666666666666 308.7608968861898 653.5 306.5075635528564C709.8333333333334 304.2542302195231 766.1666666666665 518.8842302195231 822.5 519.4475635528565C878.8333333333335 520.0108968861898 963.3333333333335 344.8142302195231 991.5 309.8875635528565 " transform="rotate(110.5, 400, 400)"></path><path d="M-168.75 485.6034097671509C-141.66666666666666 462.0409097671509 -60.416666666666686 350.4575764338175 -6.25 344.2284097671509C47.916666666666686 337.99924310048425 102.08333333333337 460.14507643381756 156.25 448.2284097671509C210.41666666666663 436.3117431004842 264.58333333333337 259.4575764338175 318.75 272.7284097671509C372.91666666666663 285.9992431004842 427.08333333333337 521.6242431004843 481.25 527.8534097671509C535.4166666666667 534.0825764338175 589.5833333333333 312.27007643381756 643.75 310.1034097671509C697.9166666666667 307.9367431004842 752.0833333333333 514.3117431004843 806.25 514.8534097671509C860.4166666666667 515.3950764338175 941.6666666666667 346.93674310048425 968.75 313.3534097671509 " transform="rotate(106.25, 400, 400)"></path><path d="M-146 482.17927124023436C-120 459.55927124023435 -42 352.43927124023435 10 346.4592712402344C62 340.47927124023437 114.00000000000006 457.7392712402344 166 446.29927124023436C217.99999999999994 434.85927124023436 270 265.07927124023433 322 277.81927124023434C374 290.55927124023435 426 516.7592712402344 478 522.7392712402344C530.0000000000001 528.7192712402343 581.9999999999999 315.7792712402344 634 313.6992712402344C686 311.61927124023435 738 509.7392712402344 790 510.2592712402344C842 510.7792712402343 920 349.0592712402344 946 316.81927124023434 " transform="rotate(102, 400, 400)"></path><path d="M-123.25 478.75511745452883C-98.33333333333333 457.0776174545288 -23.583333333333343 354.4209507878621 26.25 348.69011745452883C76.08333333333337 342.9592841211955 125.91666666666669 455.33345078786215 175.75 444.3701174545288C225.58333333333331 433.40678412119547 275.4166666666667 270.7009507878621 325.25 282.9101174545288C375.08333333333326 295.11928412119545 424.91666666666674 511.8942841211955 474.75 517.6251174545288C524.5833333333334 523.3559507878621 574.4166666666666 319.28845078786213 624.25 317.2951174545288C674.0833333333334 315.30178412119545 723.9166666666666 505.1667841211955 773.75 505.66511745452885C823.5833333333335 506.1634507878621 898.3333333333335 351.1817841211955 923.25 320.2851174545288 " transform="rotate(97.75, 400, 400)"></path><path d="M-100.5 475.33098655700684C-76.66666666666666 454.5959865570069 -5.166666666666686 356.4026532236735 42.5 350.9209865570068C90.16666666666669 345.4393198903402 137.83333333333337 452.9276532236735 185.5 442.44098655700685C233.16666666666663 431.9543198903402 280.83333333333337 276.3226532236735 328.5 288.00098655700685C376.16666666666663 299.67931989034014 423.83333333333337 507.0293198903402 471.5 512.5109865570068C519.1666666666667 517.9926532236734 566.8333333333333 322.7976532236735 614.5 320.89098655700684C662.1666666666667 318.98431989034015 709.8333333333333 500.5943198903402 757.5 501.0709865570069C805.1666666666667 501.5476532236735 876.6666666666667 353.3043198903402 900.5 323.75098655700685 " transform="rotate(93.5, 400, 400)"></path><path d="M-77.75 471.90687091827397C-55 452.11437091827395 13.25 358.38437091827393 58.75 353.1518709182739C104.25 347.91937091827396 149.75 450.521870918274 195.25 440.5118709182739C240.74999999999994 430.50187091827394 286.25000000000006 281.94437091827393 331.75 293.0918709182739C377.25 304.23937091827395 422.75 502.16437091827396 468.25 507.396870918274C513.7500000000001 512.6293709182739 559.2499999999999 326.30687091827394 604.75 324.48687091827395C650.2500000000001 322.66687091827396 695.75 496.021870918274 741.25 496.4768709182739C786.75 496.93187091827394 855 355.42687091827395 877.75 327.2168709182739 " transform="rotate(89.25, 400, 400)"></path><path d="M-55 468.482740020752C-33.33333333333333 449.63274002075195 31.666666666666657 360.3660733540853 75 355.38274002075195C118.33333333333337 350.3994066874186 161.66666666666669 448.1160733540853 205 438.582740020752C248.33333333333331 429.04940668741864 291.6666666666667 287.5660733540853 335 298.18274002075196C378.33333333333326 308.79940668741864 421.66666666666674 497.29940668741864 465 502.28274002075193C508.33333333333337 507.2660733540853 551.6666666666666 329.8160733540853 595 328.08274002075194C638.3333333333334 326.34940668741865 681.6666666666666 491.4494066874187 725 491.88274002075195C768.3333333333334 492.3160733540853 833.3333333333334 357.54940668741864 855 330.68274002075196 " transform="rotate(85, 400, 400)"></path><path d="M-32.25 465.05860912323C-11.666666666666657 447.15110912322996 50.083333333333314 362.3477757898966 91.25 357.61360912323C132.41666666666669 352.8794424565633 173.58333333333337 445.7102757898966 214.75 436.65360912323C255.91666666666663 427.5969424565633 297.08333333333337 293.18777578989665 338.25 303.27360912322996C379.41666666666663 313.35944245656333 420.58333333333337 492.4344424565634 461.75 497.16860912323C502.91666666666674 501.9027757898966 544.0833333333333 333.32527578989664 585.25 331.67860912323C626.4166666666667 330.0319424565633 667.5833333333333 486.87694245656337 708.75 487.28860912323C749.9166666666667 487.70027578989664 811.6666666666667 359.67194245656333 832.25 334.14860912322996 " transform="rotate(80.75, 400, 400)"></path><path d="M-9.5 461.63444007873534C10 444.66944007873536 68.5 364.32944007873533 107.5 359.8444400787354C146.5 355.35944007873536 185.5 443.30444007873535 224.5 434.72444007873537C263.49999999999994 426.14444007873533 302.50000000000006 298.80944007873535 341.5 308.36444007873536C380.5 317.91944007873536 419.5 487.5694400787354 458.5 492.05444007873535C497.5 496.5394400787353 536.4999999999999 336.8344400787354 575.5 335.2744400787353C614.5000000000001 333.7144400787354 653.4999999999999 482.3044400787354 692.5 482.69444007873534C731.5000000000001 483.0844400787353 790 361.79444007873536 809.5 337.61444007873536 " transform="rotate(76.5, 400, 400)"></path><path d="M13.25 458.2103168106079C31.66666666666667 442.1878168106079 86.91666666666666 366.31115014394123 123.75 362.0753168106079C160.58333333333334 357.8394834772746 197.41666666666669 440.89865014394127 234.25 432.7953168106079C271.0833333333333 424.69198347727456 307.9166666666667 304.43115014394124 344.75 313.4553168106079C381.5833333333333 322.4794834772746 418.4166666666667 482.7044834772746 455.25 486.9403168106079C492.08333333333337 491.1761501439412 528.9166666666666 340.34365014394126 565.75 338.8703168106079C602.5833333333334 337.3969834772746 639.4166666666666 477.73198347727464 676.25 478.1003168106079C713.0833333333334 478.4686501439412 768.3333333333334 363.9169834772746 786.75 341.0803168106079 " transform="rotate(72.25, 400, 400)"></path><path d="M36 454.78616302490235C53.33333333333334 439.70616302490237 105.33333333333331 368.292829691569 140 364.30616302490233C174.66666666666669 360.3194963582357 209.33333333333337 438.492829691569 244 430.86616302490233C278.66666666666663 423.23949635823567 313.33333333333337 310.052829691569 348 318.54616302490234C382.66666666666663 327.0394963582357 417.33333333333337 477.8394963582357 452 481.82616302490237C486.66666666666674 485.812829691569 521.3333333333333 343.852829691569 556 342.46616302490236C590.6666666666667 341.0794963582357 625.3333333333333 473.15949635823574 660 473.5061630249023C694.6666666666667 473.852829691569 746.6666666666667 366.0394963582357 764 344.54616302490234 " transform="rotate(68, 400, 400)"></path><path d="M58.75 451.36203212738036C75 437.22453212738037 123.75 370.2745321273804 156.25 366.53703212738037C188.75 362.79953212738036 221.25 436.0870321273804 253.75 428.9370321273804C286.25 421.78703212738037 318.75 315.67453212738036 351.25 323.6370321273804C383.75 331.59953212738037 416.25 472.97453212738037 448.75 476.7120321273804C481.25 480.4495321273804 513.75 347.36203212738036 546.25 346.06203212738035C578.75 344.7620321273804 611.25 468.58703212738044 643.75 468.91203212738037C676.25 469.23703212738036 725 368.16203212738037 741.25 348.0120321273804 " transform="rotate(63.75, 400, 400)"></path><path d="M81.5 447.93793174743655C96.66666666666667 434.74293174743656 142.16666666666666 372.2562650807699 172.5 368.76793174743653C202.83333333333334 365.2795984141032 233.16666666666669 433.6812650807699 263.5 427.00793174743654C293.8333333333333 420.3345984141032 324.1666666666667 321.29626508076984 354.5 328.7279317474365C384.8333333333333 336.1595984141032 415.1666666666667 468.1095984141032 445.5 471.5979317474365C475.83333333333337 475.08626508076986 506.16666666666663 350.87126508076983 536.5 349.6579317474365C566.8333333333334 348.4445984141032 597.1666666666666 464.01459841410326 627.5 464.31793174743655C657.8333333333334 464.62126508076983 703.3333333333334 370.2845984141032 718.5 351.4779317474365 " transform="rotate(59.5, 400, 400)"></path><path d="M104.25 444.51377033233643C118.33333333333334 432.26127033233644 160.58333333333331 374.23793699900307 188.75 370.99877033233645C216.91666666666669 367.7596036656698 245.08333333333334 431.2754369990031 273.25 425.07877033233643C301.41666666666663 418.8821036656698 329.58333333333337 326.9179369990031 357.75 333.81877033233644C385.91666666666663 340.71960366566975 414.08333333333337 463.2446036656698 442.25 466.48377033233646C470.4166666666667 469.7229369990031 498.5833333333333 354.3804369990031 526.75 353.25377033233644C554.9166666666667 352.1271036656698 583.0833333333333 459.4421036656698 611.25 459.72377033233647C639.4166666666667 460.0054369990031 681.6666666666667 372.40710366566975 695.75 354.94377033233644 " transform="rotate(55.25, 400, 400)"></path><path d="M127 441.08963943481444C140 429.77963943481444 179 376.21963943481444 205 373.22963943481443C231 370.2396394348145 257 428.8696394348145 283 423.14963943481445C309 417.4296394348145 335 332.53963943481443 361 338.90963943481444C387 345.27963943481444 413 458.37963943481446 439 461.3696394348145C465.00000000000006 464.3596394348144 490.99999999999994 357.88963943481446 517 356.84963943481443C543 355.80963943481447 569 454.8696394348145 595 455.12963943481446C621 455.3896394348144 660 374.52963943481444 673 358.40963943481444 " transform="rotate(51, 400, 400)"></path><path d="M149.75 437.6655123519897C161.66666666666669 427.29801235198977 197.41666666666666 378.2013456853231 221.25 375.46051235198973C245.08333333333334 372.7196790186564 268.9166666666667 426.46384568532307 292.75 421.2205123519898C316.5833333333333 415.97717901865644 340.4166666666667 338.16134568532306 364.25 344.00051235198976C388.0833333333333 349.8396790186564 411.9166666666667 453.51467901865647 435.75 456.25551235198975C459.58333333333337 458.99634568532304 483.41666666666663 361.39884568532307 507.25 360.44551235198975C531.0833333333334 359.49217901865643 554.9166666666666 450.29717901865644 578.75 450.5355123519898C602.5833333333334 450.77384568532307 638.3333333333334 376.6521790186564 650.25 361.87551235198976 " transform="rotate(46.75, 400, 400)"></path><path d="M172.5 434.241370010376C183.33333333333334 424.816370010376 215.83333333333331 380.18303667704265 237.5 377.691370010376C259.1666666666667 375.1997033437093 280.83333333333337 424.05803667704265 302.5 419.291370010376C324.16666666666663 414.52470334370935 345.83333333333337 343.7830366770427 367.5 349.09137001037595C389.16666666666663 354.3997033437093 410.83333333333337 448.64970334370935 432.5 451.14137001037597C454.1666666666667 453.63303667704264 475.8333333333333 364.9080366770427 497.5 364.041370010376C519.1666666666667 363.1747033437093 540.8333333333333 445.72470334370934 562.5 445.941370010376C584.1666666666667 446.1580366770427 616.6666666666667 378.7747033437093 627.5 365.34137001037595 " transform="rotate(42.5, 400, 400)"></path><path d="M195.25 430.8172276687622C205 422.3347276687622 234.25 382.1647276687622 253.75 379.9222276687622C273.25 377.6797276687622 292.75 421.6522276687622 312.25 417.3622276687622C331.75 413.0722276687622 351.25 349.40472766876223 370.75 354.1822276687622C390.25 358.9597276687622 409.75 443.78472766876223 429.25 446.0272276687622C448.75 448.2697276687622 468.24999999999994 368.4172276687622 487.75 367.6372276687622C507.25000000000006 366.8572276687622 526.75 441.15222766876224 546.25 441.34722766876223C565.75 441.54222766876217 595 380.8972276687622 604.75 368.8072276687622 " transform="rotate(38.25, 400, 400)"></path><path d="M218 427.39307769775394C226.66666666666669 419.8530776977539 252.66666666666666 384.14641103108727 270 382.15307769775393C287.33333333333337 380.1597443644206 304.6666666666667 419.24641103108723 322 415.4330776977539C339.3333333333333 411.61974436442057 356.6666666666667 355.02641103108726 374 359.27307769775393C391.3333333333333 363.5197443644206 408.6666666666667 438.9197443644206 426 440.9130776977539C443.33333333333337 442.90641103108726 460.66666666666663 371.92641103108724 478 371.2330776977539C495.33333333333337 370.5397443644206 512.6666666666666 436.5797443644206 530 436.7530776977539C547.3333333333334 436.92641103108724 573.3333333333334 383.0197443644206 582 372.27307769775393 " transform="rotate(34, 400, 400)"></path><path d="M240.75 423.9689506149292C248.33333333333334 417.3714506149292 271.08333333333337 386.12811728159585 286.25 384.3839506149292C301.4166666666667 382.63978394826256 316.58333333333337 416.8406172815959 331.75 413.5039506149292C346.91666666666663 410.16728394826254 362.08333333333337 360.6481172815959 377.25 364.3639506149292C392.41666666666663 368.0797839482625 407.58333333333337 434.0547839482625 422.75 435.7989506149292C437.9166666666667 437.54311728159587 453.0833333333333 375.43561728159585 468.25 374.8289506149292C483.4166666666667 374.22228394826254 498.5833333333333 432.00728394826257 513.75 432.1589506149292C528.9166666666667 432.31061728159585 551.6666666666667 385.1422839482625 559.25 375.7389506149292 " transform="rotate(29.75, 400, 400)"></path><path d="M263.5 420.5448197174072C270 414.88981971740725 289.5 388.1098197174072 302.5 386.6148197174072C315.5 385.1198197174072 328.5 414.4348197174072 341.5 411.5748197174072C354.5 408.71481971740724 367.5 366.26981971740724 380.5 369.45481971740725C393.5 372.63981971740725 406.5 429.18981971740726 419.5 430.6848197174072C432.5 432.1798197174072 445.5 378.9448197174072 458.5 378.4248197174072C471.5 377.90481971740724 484.5 427.4348197174072 497.5 427.5648197174072C510.5 427.6948197174072 530 387.26481971740725 536.5 379.20481971740725 " transform="rotate(25.5, 400, 400)"></path><path d="M286.25 417.12068500518797C291.6666666666667 412.408185005188 307.91666666666663 390.0915183385213 318.75 388.845685005188C329.58333333333337 387.59985167185465 340.4166666666667 412.0290183385213 351.25 409.645685005188C362.0833333333333 407.2623516718547 372.9166666666667 371.89151833852134 383.75 374.545685005188C394.5833333333333 377.1998516718547 405.4166666666667 424.3248516718547 416.25 425.570685005188C427.08333333333337 426.8165183385213 437.91666666666663 382.45401833852134 448.75 382.020685005188C459.58333333333337 381.58735167185466 470.41666666666663 422.86235167185464 481.25 422.970685005188C492.08333333333337 423.07901833852134 508.33333333333337 389.3873516718547 513.75 382.670685005188 " transform="rotate(21.25, 400, 400)"></path><path d="M309 413.6965464782715C313.3333333333333 409.92654647827146 326.3333333333333 392.07321314493817 335 391.0765464782715C343.6666666666667 390.0798798116048 352.33333333333337 409.6232131449382 361 407.7165464782715C369.66666666666663 405.8098798116048 378.33333333333337 377.51321314493816 387 379.6365464782715C395.66666666666663 381.75987981160483 404.33333333333337 419.4598798116048 413 420.4565464782715C421.6666666666667 421.45321314493816 430.3333333333333 385.96321314493815 439 385.6165464782715C447.6666666666667 385.2698798116048 456.3333333333333 418.2898798116048 465 418.3765464782715C473.6666666666667 418.46321314493815 486.6666666666667 391.50987981160483 491 386.1365464782715 " transform="rotate(17, 400, 400)"></path><path d="M331.75 410.2724098587036C335 407.4449098587036 344.75 394.0549098587036 351.25 393.30740985870364C357.75 392.55990985870363 364.25 407.2174098587036 370.75 405.7874098587036C377.25 404.3574098587036 383.75 383.1349098587036 390.25 384.7274098587036C396.75 386.3199098587036 403.25 414.5949098587036 409.75 415.3424098587036C416.25 416.0899098587036 422.75 389.4724098587036 429.25 389.2124098587036C435.75 388.9524098587036 442.25 413.7174098587036 448.75 413.7824098587036C455.25 413.8474098587036 465 393.6324098587036 468.25 389.6024098587036 " transform="rotate(12.75, 400, 400)"></path><path d="M354.5 406.848277053833C356.6666666666667 404.963277053833 363.1666666666667 396.0366103871663 367.5 395.538277053833C371.83333333333337 395.03994372049965 376.1666666666667 404.81161038716635 380.5 403.85827705383304C384.83333333333337 402.90494372049966 389.1666666666667 388.75661038716635 393.5 389.818277053833C397.8333333333333 390.8799437204997 402.1666666666667 409.7299437204997 406.5 410.22827705383304C410.83333333333337 410.7266103871663 415.16666666666663 392.98161038716637 419.5 392.808277053833C423.83333333333337 392.6349437204997 428.16666666666663 409.14494372049967 432.5 409.188277053833C436.83333333333337 409.23161038716637 443.33333333333337 395.7549437204997 445.5 393.068277053833 " transform="rotate(8.5, 400, 400)"></path><path d="M377.25 403.4241366195679C378.3333333333333 402.4816366195679 381.5833333333333 398.0183032862345 383.75 397.76913661956786C385.9166666666667 397.5199699529012 388.0833333333333 402.4058032862345 390.25 401.9291366195679C392.4166666666667 401.4524699529012 394.58333333333337 394.37830328623454 396.75 394.9091366195679C398.91666666666663 395.4399699529012 401.08333333333337 404.8649699529012 403.25 405.1141366195679C405.41666666666663 405.36330328623455 407.58333333333337 396.49080328623455 409.75 396.40413661956785C411.9166666666667 396.3174699529012 414.0833333333333 404.5724699529012 416.25 404.59413661956785C418.4166666666667 404.61580328623455 421.6666666666667 397.8774699529012 422.75 396.5341366195679 " transform="rotate(4.25, 400, 400)"></path></g></svg>