<svg xmlns="http://www.w3.org/2000/svg" version="1.1" xmlns:xlink="http://www.w3.org/1999/xlink" xmlns:svgjs="http://svgjs.dev/svgjs" viewBox="0 0 800 800"><defs><linearGradient x1="50%" y1="0%" x2="50%" y2="100%" id="ssspill-grad"><stop stop-color="hsl(37, 100%, 50%)" stop-opacity="1" offset="45%"></stop><stop stop-color="hsl(24, 67%, 66%)" stop-opacity="1" offset="100%"></stop></linearGradient><filter id="ssspot-filter" x="-20%" y="-20%" width="140%" height="140%" filterUnits="objectBoundingBox" primitiveUnits="userSpaceOnUse" color-interpolation-filters="sRGB">
	<feTurbulence type="turbulence" baseFrequency="0.022 0.218" numOctaves="2" seed="199" stitchTiles="stitch" x="0%" y="0%" width="100%" height="100%" result="turbulence"></feTurbulence>
	<feGaussianBlur stdDeviation="0 3" x="0%" y="0%" width="100%" height="100%" in="turbulence" edgeMode="duplicate" result="blur"></feGaussianBlur>
	<feDisplacementMap in="SourceGraphic" in2="blur" scale="32" xChannelSelector="R" yChannelSelector="B" x="0%" y="0%" width="100%" height="100%" result="displacementMap"></feDisplacementMap>
</filter></defs><rect width="100%" height="100%" fill="#f7dfc3"></rect><g fill="url(#ssspill-grad)" filter="url(#ssspot-filter)"><circle r="10.187362348536237" cx="351.25474868374596" cy="204.01526171124314" opacity="0.4421229688409857"></circle><circle r="8.72765590352654" cx="172.10043696357812" cy="608.4605139199" opacity="0.6629734980015389"></circle><circle r="5.17032849238946" cx="256.1627249664038" cy="464.15312248141237" opacity="0.44123451532710334"></circle><circle r="3.238767930384889" cx="703.5177011007593" cy="645.5869367711038" opacity="0.6401195600593025"></circle><circle r="6.282420016622913" cx="734.0467937129094" cy="774.5968798237894" opacity="0.10945695514091106"></circle><circle r="5.220960707522004" cx="784.4583612948205" cy="238.8653049500384" opacity="0.24232536960152726"></circle><circle r="4.644905618740755" cx="230.6396227135708" cy="645.9055772260791" opacity="0.32415078191378144"></circle><circle r="5.813871743734039" cx="271.5678624991204" cy="272.38151314364677" opacity="0.19626438680341324"></circle><circle r="5.898127358796669" cx="128.8776617896031" cy="487.31993522677317" opacity="0.1383459047116558"></circle><circle r="3.8418312635911653" cx="153.77424252470513" cy="712.845123960295" opacity="0.19452489524307098"></circle><circle r="5.207435654690881" cx="369.5637824998597" cy="683.0566330908654" opacity="0.22059039173242265"></circle><circle r="9.436134032274174" cx="687.7208593845352" cy="372.2877282192576" opacity="0.31180615175025855"></circle><circle r="7.186655394232899" cx="502.1209296786626" cy="103.51922141062524" opacity="0.561317893432322"></circle><circle r="5.926104891127327" cx="298.02740261967915" cy="628.6897786930482" opacity="0.37270447419982733"></circle><circle r="6.889128858846778" cx="58.64373658483461" cy="686.410532137778" opacity="0.21942966628882954"></circle><circle r="8.230070503663587" cx="226.79928175093718" cy="263.7516407896276" opacity="0.20808492998528672"></circle><circle r="5.760221080127098" cx="82.51010933607299" cy="354.1641522439036" opacity="0.38214982589280744"></circle><circle r="7.28433456239937" cx="16.93925325523373" cy="207.93035492313155" opacity="0.3913418540865288"></circle><circle r="5.897943793528564" cx="122.17988234429703" cy="454.8272772976989" opacity="0.9144530165767422"></circle><circle r="7.258969335472127" cx="529.4857715682275" cy="117.93944825746347" opacity="0.54718671258681"></circle><circle r="8.715073292107807" cx="114.75174366502178" cy="117.78444302509453" opacity="0.39251240563484846"></circle><circle r="4.393392578384157" cx="14.659326398283264" cy="346.38225897707173" opacity="0.7669792497450921"></circle><circle r="9.175891441013974" cx="623.7652623837929" cy="100.18657816550514" opacity="0.57860633678002"></circle><circle r="6.5988096869577415" cx="485.3330185300006" cy="56.501856575807835" opacity="0.9870286701003816"></circle><circle r="5.026789783845352" cx="268.36373977323507" cy="614.608326209321" opacity="0.6279419841670644"></circle><circle r="4.496043538760823" cx="117.64399424962303" cy="199.30724527514315" opacity="0.11103664119246713"></circle><circle r="9.650069863092721" cx="629.2392362817495" cy="39.84546932325767" opacity="0.6913027910512924"></circle><circle r="5.583781441648418" cx="39.152216949730445" cy="622.3610783239202" opacity="0.6339509944129705"></circle><circle r="6.218900410040984" cx="494.16744444537926" cy="613.8838508081432" opacity="0.4984148179307185"></circle><circle r="8.351915293888243" cx="529.1590144239641" cy="381.22948262258626" opacity="0.11822863137625954"></circle><circle r="7.701910153208081" cx="627.3180414893895" cy="290.186174400375" opacity="0.7127883345180918"></circle><circle r="15.297672710365656" cx="484.4195054236673" cy="502.80046426972683" opacity="0.140069359877505"></circle><circle r="6.7339916188440885" cx="170.41920464157081" cy="686.8764876135517" opacity="0.6431575488303313"></circle><circle r="6.270548328697652" cx="201.53192071051888" cy="579.8961188419812" opacity="0.6172995787232056"></circle><circle r="4.085504217290373" cx="788.2224349131443" cy="533.3188428808842" opacity="0.7051218609568335"></circle><circle r="6.520268259057184" cx="499.20826320752775" cy="155.71722932505716" opacity="0.1126649882259502"></circle><circle r="5.3815245398300915" cx="309.9453516426869" cy="728.2111940215462" opacity="0.9851741408050411"></circle><circle r="6.165580862841475" cx="704.7306407855293" cy="249.9943850454469" opacity="0.6173098689275629"></circle><circle r="6.074645253818576" cx="84.7056062785146" cy="310.4947858820694" opacity="0.9301902281166021"></circle><circle r="6.987135087400885" cx="16.142463078968433" cy="764.8010352987316" opacity="0.9411010523804401"></circle><circle r="8.445018460259437" cx="632.7999497514461" cy="608.1362812202142" opacity="0.902798544492974"></circle><circle r="5.240913784960855" cx="741.9810826837087" cy="724.5476208001971" opacity="0.30405760686891603"></circle><circle r="3.8169710447749896" cx="297.94484269608205" cy="42.04895973465008" opacity="0.2854724865411832"></circle><circle r="12.118140152458945" cx="480.7217834234682" cy="737.7157021765244" opacity="0.3920166944927792"></circle><circle r="5.925401229149607" cx="22.992474908826697" cy="714.2660902968738" opacity="0.8768263558953103"></circle><circle r="9.936892530497435" cx="392.18153943657103" cy="358.08951211581575" opacity="0.6352660074036296"></circle><circle r="11.05959478043717" cx="630.5714447495485" cy="149.85917097772656" opacity="0.39448235474821447"></circle><circle r="10.345683339802513" cx="479.8836019373384" cy="381.39714148042265" opacity="0.7241108710961072"></circle><circle r="5.3402461083184525" cx="526.0955836598012" cy="645.760310045025" opacity="0.3817419298773881"></circle><circle r="7.55131229519261" cx="545.6747484788673" cy="184.17593734935417" opacity="0.5908500051500025"></circle><circle r="5.736550145860208" cx="726.1180283549047" cy="172.9861603043353" opacity="0.9082713911113104"></circle><circle r="5.513550172667278" cx="346.26929849229316" cy="735.5765573605529" opacity="0.24557949305441298"></circle><circle r="7.799821579253281" cx="69.12897877898358" cy="58.48472310336494" opacity="0.389290101020619"></circle><circle r="10.022411955564593" cx="515.7076465546542" cy="554.6582499507032" opacity="0.9873790508623762"></circle><circle r="6.193098998549599" cx="490.6552042525382" cy="17.069299761000924" opacity="0.29415458866698374"></circle><circle r="4.871740325426012" cx="21.267960870842685" cy="160.0083941477827" opacity="0.9051678663508157"></circle><circle r="7.111539009320808" cx="784.7650828980842" cy="430.69294415707293" opacity="0.5810224717245686"></circle><circle r="6.851401986823527" cx="700.7416127494837" cy="783.8975077049806" opacity="0.7076491711002392"></circle><circle r="9.133787042692287" cx="655.1009078182376" cy="392.24260922036905" opacity="0.379804792661248"></circle><circle r="5.552001730086756" cx="225.50792616616891" cy="13.859874643425398" opacity="0.5991651162757184"></circle><circle r="8.48782024320834" cx="510.9082912201425" cy="278.7706381950515" opacity="0.692622244746452"></circle><circle r="8.496656338105174" cx="643.9628361442146" cy="678.4224039197713" opacity="0.696892319325171"></circle><circle r="4.328879288924078" cx="364.90575403768355" cy="582.7936566740044" opacity="0.5109402825101836"></circle><circle r="7.185206688669207" cx="347.4231429501744" cy="77.39744005045898" opacity="0.21076179438857653"></circle><circle r="9.72875281897685" cx="777.4916660882576" cy="730.7773715222521" opacity="0.18595173727614417"></circle><circle r="7.3140633650354" cx="168.3597573958658" cy="206.1648923038781" opacity="0.9040130500338888"></circle><circle r="11.604627383827754" cx="469.0034225825215" cy="572.2222764941247" opacity="0.9380177546916643"></circle><circle r="5.8920789053638725" cx="100.85141203941791" cy="427.0590349491135" opacity="0.29273039627676556"></circle><circle r="8.685611087545723" cx="51.534911469294435" cy="780.4518300864571" opacity="0.8957513798705141"></circle><circle r="10.814519536846092" cx="463.1690028174646" cy="438.42318886544047" opacity="0.4499579502453507"></circle><circle r="4.128294769727787" cx="748.5812957676958" cy="678.514448156571" opacity="0.891576504708619"></circle><circle r="6.834531675215162" cx="244.95219315725697" cy="778.6326785416178" opacity="0.7172729453547352"></circle><circle r="7.301204150591902" cx="45.23586993865966" cy="179.99315188420636" opacity="0.3905193522744317"></circle><circle r="10.539391068892044" cx="360.6055122834704" cy="317.6719327063962" opacity="0.5740368593739746"></circle><circle r="4.42569713121615" cx="15.474483461278108" cy="97.48060810411897" opacity="0.2371744456208291"></circle><circle r="3.9396718109337217" cx="151.349182991657" cy="394.41392737150255" opacity="0.14899174800076886"></circle><circle r="7.491945646546014" cx="312.10216645053407" cy="251.53765618087735" opacity="0.7267836730826807"></circle><circle r="8.368160423802813" cx="19.419057089013666" cy="552.4382253561034" opacity="0.70412503723359"></circle><circle r="7.192208640242104" cx="319.9131032238704" cy="661.2902146206955" opacity="0.7624132982846752"></circle><circle r="5.8499744560298215" cx="170.00201583111297" cy="343.4400221599466" opacity="0.4064331757137454"></circle><circle r="6.2219402787518545" cx="572.6092267783305" cy="606.8883445957515" opacity="0.6494336074559169"></circle><circle r="11.966627796672041" cx="566.6657851076012" cy="415.20654066826285" opacity="0.7674617861334195"></circle><circle r="7.371447808905897" cx="87.17234524680663" cy="615.2022042593338" opacity="0.3575748800787787"></circle><circle r="5.218220117736085" cx="235.20685119692368" cy="310.3400862495568" opacity="0.8656127488745354"></circle><circle r="5.265025929993182" cx="190.34417695525673" cy="424.2059262204527" opacity="0.3153309292951111"></circle><circle r="9.541883289959856" cx="277.92250087674233" cy="770.4322401118708" opacity="0.7602287342997168"></circle><circle r="6.808511111761823" cx="541.8564947871349" cy="760.2659918854139" opacity="0.8517886688381879"></circle><circle r="11.546117514866147" cx="534.4495877833829" cy="241.4788472690283" opacity="0.11391902263391895"></circle><circle r="6.122679561323501" cx="139.96034963024454" cy="621.2407128307738" opacity="0.9763196199177263"></circle><circle r="8.655607750043874" cx="247.13165111442353" cy="703.4111656861701" opacity="0.676250720047683"></circle><circle r="4.75004545479139" cx="288.90779586379375" cy="683.1623362418816" opacity="0.7136601552625066"></circle><circle r="5.938880613712438" cx="230.78989526476028" cy="490.5415118158212" opacity="0.38037683909422293"></circle><circle r="10.690985454432852" cx="579.8342110426851" cy="730.7662065943643" opacity="0.10910670889276355"></circle><circle r="6.5060264770637115" cx="372.7640537171516" cy="755.7749253018612" opacity="0.269422188481305"></circle><circle r="5.399066656097608" cx="771.7536728958682" cy="645.4829400942076" opacity="0.7744599306490264"></circle><circle r="5.522260039553911" cx="16.459312950558655" cy="15.224301822543765" opacity="0.7695357896842777"></circle><circle r="8.054773990736521" cx="714.8061326073508" cy="330.22109040013794" opacity="0.6344863932690721"></circle><circle r="9.435743695420685" cx="542.7706541386608" cy="299.0195593351995" opacity="0.33000096629956016"></circle><circle r="7.260207417514371" cx="778.4529992698026" cy="334.7309356664985" opacity="0.8906563573660611"></circle><circle r="4.9279497138931445" cx="552.091094992749" cy="548.7053582132892" opacity="0.6653477464234292"></circle><circle r="9.43634885753924" cx="679.3855253105438" cy="50.87832173329309" opacity="0.6744308648400663"></circle><circle r="4.676656127777545" cx="271.5573705545626" cy="12.037952915194948" opacity="0.9108887872288973"></circle><circle r="4.64347465088264" cx="37.00358433828521" cy="45.21782876935037" opacity="0.24360676979593227"></circle><circle r="7.027506682472774" cx="757.5465417227982" cy="125.03321448883415" opacity="0.12505281437825547"></circle><circle r="4.351507832452788" cx="27.41107817520402" cy="590.399470633477" opacity="0.9583062847338297"></circle><circle r="6.597102925281386" cx="424.8657827496701" cy="52.21577655555375" opacity="0.9600313661376293"></circle><circle r="4.8922133044688545" cx="84.5093953521145" cy="747.175944185349" opacity="0.5128254590519185"></circle><circle r="2.2279396841982018" cx="314.4936710249537" cy="5.404322362501949" opacity="0.3322982838576481"></circle><circle r="5.34493166522049" cx="16.469280183107486" cy="251.56483018978682" opacity="0.23932050108458264"></circle><circle r="5.450421598738476" cx="129.71652843014525" cy="648.6899628605858" opacity="0.7156672965366011"></circle><circle r="5.335680884366612" cx="475.03413000424854" cy="89.21137123594664" opacity="0.3243093208623085"></circle><circle r="5.59065570258516" cx="336.85315841112555" cy="524.8723890402312" opacity="0.45863988134031497"></circle><circle r="4.586598572022563" cx="66.13304313223" cy="653.5585962986731" opacity="0.3104809086310504"></circle><circle r="8.979872719373706" cx="118.23888249624073" cy="717.2385700323741" opacity="0.8072700233310779"></circle><circle r="5.958244719223684" cx="251.69728886384465" cy="507.72236342220765" opacity="0.38818199948830145"></circle><circle r="8.975115055008544" cx="706.4209121325663" cy="442.0701352032091" opacity="0.11995400257529015"></circle><circle r="4.665893000567571" cx="117.56954763336948" cy="323.25699857542816" opacity="0.975860028984372"></circle><circle r="9.98606686160971" cx="601.5414545946186" cy="773.7230424595882" opacity="0.332285221269376"></circle><circle r="6.800315950455501" cx="446.9559445124972" cy="202.1315555748103" opacity="0.5550457853544"></circle><circle r="6.200853348561124" cx="600.657793777377" cy="196.11859502924472" opacity="0.9234455488762002"></circle><circle r="5.657295652203482" cx="673.7833503607156" cy="273.65095324507513" opacity="0.1304255346246679"></circle><circle r="4.178197934335155" cx="714.45230533956" cy="283.61357546506997" opacity="0.7265914536251641"></circle><circle r="7.192145394165223" cx="581.9536957259733" cy="565.2837349026604" opacity="0.5414553624552996"></circle><circle r="8.479218045285828" cx="136.22553474044702" cy="170.50095396306745" opacity="0.5265412450098527"></circle><circle r="10.843544037187517" cx="301.2376487395423" cy="179.36295121242944" opacity="0.7811321039499027"></circle><circle r="8.797195700193825" cx="684.2584874798065" cy="677.3111119920336" opacity="0.18375481851237763"></circle><circle r="5.675477839542028" cx="66.0131137912071" cy="561.7229861548908" opacity="0.10273436809818526"></circle><circle r="6.71375930541602" cx="295.59612492584307" cy="579.4915996986514" opacity="0.9382827449265505"></circle><circle r="5.321914693761368" cx="544.9080344198906" cy="679.7925715512613" opacity="0.8327002514371654"></circle><circle r="8.711062855478087" cx="154.31951462930462" cy="123.36177089462124" opacity="0.6188622596105691"></circle><circle r="8.035599108885403" cx="656.0936558745955" cy="725.9665263640861" opacity="0.3721932515569095"></circle><circle r="11.419801471221868" cx="476.1913788105681" cy="245.2234471497649" opacity="0.6770581183279492"></circle><circle r="8.004872758990231" cx="613.8686416429913" cy="707.8757533834205" opacity="0.4054399048134808"></circle><circle r="10.550809931866649" cx="414.5647078924654" cy="310.8740873373647" opacity="0.30735083527299767"></circle><circle r="6.382500173549701" cx="458.5561783066893" cy="28.782543302232796" opacity="0.294042200642935"></circle><circle r="6.002032386646524" cx="312.6408836408347" cy="397.32681428189744" opacity="0.578445777834219"></circle><circle r="4.1156236922147516" cx="389.46695196829495" cy="783.717013436705" opacity="0.3865663772480371"></circle><circle r="7.30786255293786" cx="590.967871301919" cy="527.170151386626" opacity="0.6940010567265352"></circle><circle r="8.94375793250101" cx="778.1320955987154" cy="286.56767717498457" opacity="0.9331024896267022"></circle><circle r="5.165561403259365" cx="782.6859738873334" cy="772.3355805262489" opacity="0.41086403064699795"></circle><circle r="8.469190350630218" cx="768.9374869200092" cy="31.6783468676511" opacity="0.2599533265323162"></circle><circle r="6.652603527640503" cx="262.0158625552463" cy="125.52341566615695" opacity="0.3720703994558804"></circle><circle r="8.400285470322185" cx="531.5092758925045" cy="607.10785859036" opacity="0.8344781976704964"></circle><circle r="10.153942910898945" cx="498.33665718738393" cy="678.6213558377137" opacity="0.5532978392344042"></circle><circle r="5.644044675753329" cx="567.8589482189633" cy="67.43024033282882" opacity="0.5565763559886087"></circle><circle r="6.774139090132406" cx="86.1212583640397" cy="393.26000071145234" opacity="0.7527661766437135"></circle><circle r="4.182153734379841" cx="519.262882664719" cy="785.2210618087672" opacity="0.3062598634818592"></circle><circle r="6.952639205729759" cx="696.7229813838441" cy="180.12403952428636" opacity="0.8642566531738487"></circle><circle r="5.269239665380867" cx="82.75339579735046" cy="90.81801585708804" opacity="0.46023569728864056"></circle><circle r="6.029714991495757" cx="214.16813489317514" cy="360.23410734010685" opacity="0.6680569501434029"></circle><circle r="7.455908099528135" cx="513.7013625847138" cy="444.56830482459185" opacity="0.7259787542613634"></circle><circle r="8.176449178001528" cx="608.7481533942878" cy="503.0448531048517" opacity="0.12348724056180753"></circle><circle r="9.423503368148314" cx="421.08216448150154" cy="672.0773773591449" opacity="0.4906205920523812"></circle><circle r="10.003768961006342" cx="426.3083917366005" cy="737.5031096933997" opacity="0.727538649742432"></circle><circle r="7.744812631243096" cx="499.3333645979529" cy="201.3663875243085" opacity="0.6685968082297503"></circle><circle r="7.8025930672202986" cx="267.6848001703849" cy="533.5278221902207" opacity="0.7237465427823521"></circle><circle r="6.879104351647874" cx="78.28043744464429" cy="143.57060571760422" opacity="0.8310880279111091"></circle><circle r="7.410959216191614" cx="671.9759584992187" cy="431.1274426060777" opacity="0.20331777158475722"></circle><circle r="9.53437504118803" cx="431.8766542345693" cy="534.5979443733964" opacity="0.6732551052639705"></circle><circle r="6.632260850849521" cx="387.4976370968886" cy="275.7750183142954" opacity="0.8757961010431802"></circle><circle r="7.403025942583268" cx="143.24602975096533" cy="423.00797488802186" opacity="0.3683429902095855"></circle><circle r="7.588236010076726" cx="741.2249876833919" cy="470.63556305925243" opacity="0.6925708261487872"></circle><circle r="9.334071638128586" cx="663.0631423150111" cy="567.4081436579379" opacity="0.3187656199344065"></circle><circle r="2.817302312749584" cx="6.744519527201551" cy="321.30576029450697" opacity="0.859337020437332"></circle><circle r="4.163144395546765" cx="745.4496251006475" cy="610.326302237861" opacity="0.686791487744762"></circle><circle r="3.8090047740385664" cx="322.28524548259804" cy="54.47278338649398" opacity="0.5914144686158118"></circle><circle r="5.451209498920818" cx="430.7774986061615" cy="393.98694501505526" opacity="0.8122843103204369"></circle><circle r="5.581000376047162" cx="634.2014405856046" cy="478.8985798194719" opacity="0.17535811336133725"></circle><circle r="5.681797194815906" cx="304.29130798467907" cy="308.5977864357503" opacity="0.18729468564757773"></circle><circle r="6.361617170348576" cx="786.5936461570639" cy="182.4840212267247" opacity="0.6937901570124732"></circle><circle r="10.831740050612382" cx="672.0983987156" cy="109.58942458446907" opacity="0.7284956471140449"></circle><circle r="4.8219148340971385" cx="211.9937777065186" cy="687.9143131969728" opacity="0.7317219734475326"></circle><circle r="4.428357680263508" cx="709.9805041744918" cy="621.540013960482" opacity="0.5116645994512813"></circle><circle r="7.862037389368817" cx="410.3303275486796" cy="628.5985246213462" opacity="0.15854335550511325"></circle><circle r="8.764387078401532" cx="181.91887641972156" cy="655.2830088706094" opacity="0.9572720765612917"></circle><circle r="4.218327634638154" cx="274.5260000505288" cy="35.71025129105309" opacity="0.3170123073977361"></circle><circle r="5.526044379766085" cx="26.469927567137194" cy="319.6827572198342" opacity="0.31689045881998146"></circle><circle r="12.803713358996182" cx="544.3112243638524" cy="495.7426603747876" opacity="0.20699074137941903"></circle><circle r="5.477527430139897" cx="719.8144850640712" cy="669.8997861261945" opacity="0.6160542702446006"></circle><circle r="6.692580844549471" cx="583.3475438432597" cy="21.142272694907362" opacity="0.9147572561893412"></circle><circle r="2.655307435577873" cx="250.41029725270167" cy="9.152485120344616" opacity="0.9452171884786148"></circle><circle r="5.8702753069285585" cx="241.25470997248078" cy="438.643831885627" opacity="0.782818698935069"></circle><circle r="8.318295769063859" cx="662.0300889272378" cy="637.2679165096845" opacity="0.6979268066682148"></circle><circle r="8.901564133022704" cx="117.3862992169654" cy="755.303503277718" opacity="0.5397181801683901"></circle><circle r="5.4924026807893656" cx="374.10809807977904" cy="548.7434245352101" opacity="0.9860331282645929"></circle><circle r="7.702871328916998" cx="752.1156997662276" cy="578.9483632577983" opacity="0.16984589740047784"></circle><circle r="5.905246464169437" cx="616.7216612501107" cy="416.7283628222793" opacity="0.7002693661274139"></circle><circle r="10.819182773167377" cx="429.63832153166874" cy="485.55972961227764" opacity="0.28326183734680244"></circle><circle r="6.880352309184252" cx="619.7853143892095" cy="565.7045233424213" opacity="0.9549122509314237"></circle><circle r="8.36329465305262" cx="725.9965112020634" cy="551.6209366957681" opacity="0.6373876743896808"></circle><circle r="6.9602530520879835" cx="453.39932924142164" cy="162.56386367347747" opacity="0.7857828689515725"></circle><circle r="7.253488674129831" cx="554.0459995617811" cy="138.7387436941244" opacity="0.8252019805170198"></circle><circle r="5.844717301657509" cx="404.8705506337765" cy="212.72501628682997" opacity="0.7434928371667997"></circle><circle r="7.735001027210915" cx="242.8325395801223" cy="64.75985464975443" opacity="0.5561512989890822"></circle><circle r="5.662907704896889" cx="606.9974413005673" cy="645.6201483476" opacity="0.6115106943759692"></circle><circle r="3.476109975202722" cx="29.501659511340204" cy="74.47708062277192" opacity="0.382417671385752"></circle><circle r="4.7081662570993235" cx="154.39164144178227" cy="567.0938820910222" opacity="0.6262720428999617"></circle><circle r="8.620794501787103" cx="531.8068926609124" cy="717.325773401796" opacity="0.41931047680185474"></circle><circle r="7.488471938691631" cx="206.06334613383208" cy="460.89167534007" opacity="0.5111059640849153"></circle><circle r="9.982504678943695" cx="531.7329772146857" cy="25.864895551471683" opacity="0.48793066408929453"></circle><circle r="6.250498204014657" cx="185.39549211051536" cy="551.177993404286" opacity="0.18185570648453062"></circle><circle r="5.123526370779637" cx="306.23754563242903" cy="344.1744664048149" opacity="0.8079367836758904"></circle><circle r="9.123681234061166" cx="379.91281749661687" cy="507.676054929156" opacity="0.47807863913057425"></circle><circle r="5.85411486896872" cx="278.5534169868866" cy="653.936010315785" opacity="0.21732731119073756"></circle><circle r="5.11979346806429" cx="737.8421153051048" cy="642.6003358712487" opacity="0.13493022924873704"></circle><circle r="6.8540945241821465" cx="14.986029257552149" cy="417.8180975284686" opacity="0.6955548218266613"></circle><circle r="8.095462866085233" cx="390.7724991422801" cy="457.5205574053274" opacity="0.2539659286114676"></circle><circle r="7.4324096376443425" cx="782.8261916949734" cy="682.821562859687" opacity="0.5264091221254121"></circle><circle r="4.997827715412315" cx="95.4524652388212" cy="545.8708234625094" opacity="0.7848664234819114"></circle><circle r="10.60222804785234" cx="439.1401596892084" cy="349.1233241562965" opacity="0.23883408577605175"></circle><circle r="7.846415551209514" cx="48.03534568307844" cy="270.1813136916708" opacity="0.6698868161256449"></circle><circle r="8.944588543614334" cx="222.81794914993895" cy="206.09401531911763" opacity="0.21529384273488794"></circle><circle r="9.199548981617996" cx="650.9194297945828" cy="237.77903487974103" opacity="0.32879383131798057"></circle><circle r="6.51220479739282" cx="344.7326459093646" cy="121.35135764629167" opacity="0.9491115528055896"></circle><circle r="7.68422020282857" cx="27.694965148053775" cy="513.6820684093275" opacity="0.6521150758347873"></circle><circle r="6.7985991907855485" cx="16.179160962829368" cy="290.72018280865063" opacity="0.8651819044833268"></circle><circle r="2.6301308748541175" cx="329.24534171157234" cy="23.256894274556323" opacity="0.38096901953824047"></circle><circle r="6.369600375358494" cx="176.81691030744562" cy="786.5804625080522" opacity="0.7733178635586384"></circle><circle r="8.190889395006288" cx="696.0579606968712" cy="537.8908034642938" opacity="0.2071092126758024"></circle><circle r="8.240508281862924" cx="469.865920371716" cy="124.30620878566731" opacity="0.8866513035969835"></circle><circle r="3.7585538543691817" cx="736.2052242634179" cy="518.9530899563301" opacity="0.6253825077670495"></circle><circle r="8.204856939699662" cx="668.3625536539358" cy="335.42557053931637" opacity="0.9701898316183684"></circle><circle r="5.289636989468136" cx="115.14854539758878" cy="280.2324000326809" opacity="0.3980893766307485"></circle><circle r="5.620647325015253" cx="119.8383808575008" cy="585.9561796088896" opacity="0.22876178756145715"></circle><circle r="3.9351495196318798" cx="247.03768525178833" cy="32.3837963921265" opacity="0.39107416476581747"></circle><circle r="7.030109025751606" cx="52.21421239591227" cy="383.9835916630997" opacity="0.1584926087053732"></circle><circle r="3.8902894878600285" cx="194.47796753787793" cy="525.1571631394833" opacity="0.8820081942454218"></circle><circle r="5.542761074082081" cx="136.93878440161333" cy="235.05402350868897" opacity="0.9613709730486002"></circle><circle r="6.327624498552789" cx="136.0033498455987" cy="681.3170351110405" opacity="0.3783114991000761"></circle><circle r="11.016154290352311" cx="433.7543591874424" cy="264.0054667932023" opacity="0.7939319045937002"></circle><circle r="8.230718407350096" cx="18.252441811279837" cy="375.08957669168416" opacity="0.8946888188384542"></circle><circle r="4.548622543627155" cx="786.7809458955542" cy="576.5156388724108" opacity="0.967190065596882"></circle><circle r="8.837259573438061" cx="585.7333854385099" cy="247.64910857520508" opacity="0.8056446757962524"></circle><circle r="3.6132259023470628" cx="9.754178677308113" cy="48.135127353824274" opacity="0.6794967075153163"></circle><circle r="8.947681187839022" cx="653.3239162665416" cy="517.6324645345996" opacity="0.904492335142169"></circle><circle r="5.620301880218774" cx="81.14430284491256" cy="24.847020148521583" opacity="0.541482456637923"></circle><circle r="8.693837647212128" cx="697.887387107639" cy="593.3968943567469" opacity="0.5067219072472868"></circle><circle r="7.659570913131671" cx="698.2662091350494" cy="215.87843016746308" opacity="0.8956213145766038"></circle><circle r="5.34271325952024" cx="119.81975606155505" cy="65.89254506815777" opacity="0.15112003994028478"></circle><circle r="9.218154695613915" cx="265.2589330849694" cy="220.6154930320795" opacity="0.1255886603135262"></circle><circle r="8.59275267074393" cx="581.7187584836233" cy="329.99542707881096" opacity="0.946326454384942"></circle><circle r="8.86148340851579" cx="51.41632252044235" cy="734.53921622451" opacity="0.21618500218424538"></circle><circle r="7.95563767096208" cx="716.8825341696125" cy="25.457600849354534" opacity="0.515175954079135"></circle><circle r="4.1634209208696245" cx="118.17569303268705" cy="352.45746072342706" opacity="0.5882249578041259"></circle><circle r="6.756490765077947" cx="292.1983628319405" cy="99.55000701844533" opacity="0.35528192588122853"></circle><circle r="7.663847750162917" cx="81.40187517633241" cy="710.4711001439667" opacity="0.44942143817261015"></circle><circle r="4.909252054806208" cx="256.67514063386994" cy="341.53533171027163" opacity="0.20143198176371588"></circle><circle r="7.632559444852632" cx="384.3602065678166" cy="33.99568288967958" opacity="0.4101759231457742"></circle><circle r="6.760572564974598" cx="784.4035335648076" cy="616.2117345342658" opacity="0.7916246109677478"></circle><circle r="9.503048900336495" cx="351.2709910416556" cy="425.96003044621153" opacity="0.11895329701370991"></circle><circle r="8.620165905713979" cx="231.575339747728" cy="406.2083646463529" opacity="0.6129397075431968"></circle><circle r="8.183473646368725" cx="187.1131811244813" cy="252.89833679133667" opacity="0.9626942032779274"></circle><circle r="10.866392899964595" cx="24.174737058846333" cy="467.89264088041637" opacity="0.7354987039959837"></circle><circle r="7.4879167382501155" cx="575.9043967237518" cy="666.858309260938" opacity="0.21113563168105953"></circle><circle r="6.053187452231308" cx="98.33245798857887" cy="785.1656419223764" opacity="0.8260135163962734"></circle><circle r="7.323320392621774" cx="334.4490920644764" cy="695.7775888122475" opacity="0.7920608247262169"></circle><circle r="5.203714961186819" cx="443.12077257326473" cy="85.2355944540393" opacity="0.7210968535660714"></circle><circle r="6.152426277264219" cx="333.3038643121902" cy="633.2046907543934" opacity="0.7212846238371919"></circle><circle r="6.956028273357509" cx="166.79677996943633" cy="17.648539106289903" opacity="0.5538653164293438"></circle><circle r="6.78494620789592" cx="765.462400501232" cy="205.56537687928042" opacity="0.21764122631779148"></circle><circle r="7.0994005178356945" cx="452.88016335404114" cy="780.299122112994" opacity="0.81131453398159"></circle><circle r="7.2023291751283445" cx="721.6081109097862" cy="396.35256232235355" opacity="0.21330374940534338"></circle><circle r="3.7215650002402842" cx="307.08546594814305" cy="22.008431439557484" opacity="0.4266416644408807"></circle><circle r="7.133992972484249" cx="53.872650211873534" cy="304.7026870155368" opacity="0.5026650595084564"></circle><circle r="6.140031556651268" cx="779.3394962516388" cy="378.97244405232846" opacity="0.48006964080017434"></circle><circle r="4.1053651690618675" cx="674.7795159182024" cy="754.4853435143659" opacity="0.9113348841343196"></circle><circle r="8.563186245918795" cx="101.19784739224202" cy="674.6906438553079" opacity="0.9028807330606854"></circle><circle r="5.977279971159341" cx="77.25377034771478" cy="460.11295877346464" opacity="0.6112060955308798"></circle><circle r="6.2277170387083345" cx="90.4886486816748" cy="222.41408960909502" opacity="0.25222836110187064"></circle><circle r="7.964960532310762" cx="70.10737949364746" cy="497.2189788783897" opacity="0.6521344935921862"></circle><circle r="6.943304517042621" cx="65.88612758068246" cy="430.57439573886074" opacity="0.9866979604572362"></circle><circle r="4.744486907665687" cx="741.5220245415948" cy="431.3262613685138" opacity="0.770235653247784"></circle><circle r="8.073910219880595" cx="154.6023424248897" cy="746.3995307075103" opacity="0.851788822178936"></circle><circle r="4.348532732448502" cx="347.9446016331856" cy="610.1901387110008" opacity="0.7675306994236152"></circle><circle r="4.674420335928202" cx="679.0136971808461" cy="152.1180786521287" opacity="0.9500319981861264"></circle><circle r="5.568414650068254" cx="18.374814749741212" cy="129.34639659401873" opacity="0.15608523704922497"></circle><circle r="5.731150435444166" cx="685.5055567502824" cy="305.13687640669224" opacity="0.20651468671532783"></circle><circle r="8.136589369642287" cx="230.74863858739394" cy="740.1306364599409" opacity="0.1204579790917966"></circle><circle r="6.374891484541262" cx="323.9746774666718" cy="595.2756998507846" opacity="0.42462795060763725"></circle><circle r="6.024595485070099" cx="161.65501267082843" cy="61.472679944357715" opacity="0.31827183777644097"></circle><circle r="4.320624032515873" cx="762.4272991834548" cy="544.2258318854936" opacity="0.5697968439701862"></circle><circle r="5.266882288674872" cx="126.94002332588134" cy="535.359851475074" opacity="0.22956835940411902"></circle><circle r="6.184176228641835" cx="302.7644190307615" cy="522.43465402395" opacity="0.7297959434701468"></circle><circle r="6.795052412299725" cx="586.7084420770726" cy="463.1721312324928" opacity="0.6914558505948477"></circle><circle r="8.00621666224288" cx="185.9602429746683" cy="165.05982297396721" opacity="0.4596171032630372"></circle><circle r="6.537556512498513" cx="371.9028260650906" cy="652.5803290453539" opacity="0.11570443439188956"></circle><circle r="10.72173181889572" cx="205.68040903839645" cy="123.59119427036028" opacity="0.4209054644011444"></circle><circle r="7.668635048412273" cx="753.6160497492664" cy="173.88570394413202" opacity="0.6411073020865868"></circle><circle r="5.4045798318824465" cx="190.94875580828753" cy="726.51044077321" opacity="0.25548142703876"></circle><circle r="6.072752304448198" cx="157.41295018182558" cy="521.238758266617" opacity="0.7619894381318709"></circle><circle r="5.405465032271165" cx="17.390451373988466" cy="682.9102140569921" opacity="0.6999032556401851"></circle><circle r="5.1172884225835436" cx="391.6049961615301" cy="712.3208763141733" opacity="0.9020252080664395"></circle><circle r="8.808311431252282" cx="529.6626524403788" cy="338.6389251385463" opacity="0.13330555416365059"></circle><circle r="5.275320835367789" cx="706.9999741500671" cy="742.2010627606011" opacity="0.343491336152854"></circle><circle r="7.527186139776964" cx="377.69129592266523" cy="615.8084943964379" opacity="0.8153392397195905"></circle><circle r="8.7128654591884" cx="368.1500295074333" cy="239.74658505210235" opacity="0.1198766497975707"></circle><circle r="9.793526466742659" cx="242.07617549390034" cy="166.98380280105516" opacity="0.9515070466899215"></circle><circle r="5.982448718871919" cx="104.98800192720539" cy="508.19080863492724" opacity="0.26497789155982954"></circle><circle r="6.85603902968559" cx="429.35305736543626" cy="128.39768823240547" opacity="0.607986673531416"></circle><circle r="4.298712571442831" cx="265.2048119466002" cy="569.398754446158" opacity="0.8148391478315723"></circle><circle r="7.290959522501213" cx="178.55018548689264" cy="489.7442966310655" opacity="0.685929225759497"></circle><circle r="4.098470630169123" cx="744.4996019619766" cy="227.67290041415944" opacity="0.19308307580683698"></circle><circle r="8.516968959066588" cx="344.4339449308531" cy="476.4958089910781" opacity="0.34218111473570767"></circle><circle r="8.811170144424267" cx="397.27247524211947" cy="92.34615730243983" opacity="0.5721323486279688"></circle><circle r="7.785705949986543" cx="721.7963543639028" cy="105.34115257375777" opacity="0.9210752713582219"></circle><circle r="7.246229854902367" cx="303.1671512816966" cy="443.0575744490068" opacity="0.3320869180245488"></circle><circle r="8.779470229921124" cx="149.61849803492825" cy="308.32809362277334" opacity="0.7686740350492716"></circle><circle r="5.875874155127864" cx="523.5156397137583" cy="71.42547581884821" opacity="0.31026025046827377"></circle><circle r="5.727993799152388" cx="640.1168874943615" cy="782.9294510802735" opacity="0.11862170427239158"></circle><circle r="6.514897812762694" cx="49.792180544168744" cy="15.09241397255319" opacity="0.5948344526015739"></circle><circle r="7.417414400793993" cx="48.63358994946349" cy="342.3849585728256" opacity="0.8720766207030123"></circle><circle r="3.2519602942310675" cx="254.16752811942075" cy="659.5952191112929" opacity="0.2715513752695513"></circle><circle r="7.197597470582231" cx="143.49255003982168" cy="781.8994312338283" opacity="0.11698832937679278"></circle><circle r="5.502904856127624" cx="198.19618643045936" cy="219.78272872453167" opacity="0.48154745258019527"></circle><circle r="6.789127919749631" cx="192.9625672185045" cy="762.0311017351224" opacity="0.9061062696485171"></circle><circle r="5.44988724908457" cx="153.90898894773932" cy="269.13122015043376" opacity="0.4417398441370233"></circle><circle r="4.377756965717883" cx="213.9602379984502" cy="785.2692230794999" opacity="0.35862290246463546"></circle><circle r="5.907691135623652" cx="142.07874184946039" cy="366.29561363419464" opacity="0.8602428190478414"></circle><circle r="4.229003209531477" cx="760.1394808398501" cy="787.6823607139819" opacity="0.5933414846853641"></circle><circle r="7.7047833581984" cx="454.2344396839785" cy="628.1185162282792" opacity="0.5792871338494888"></circle><circle r="5.386204329836855" cx="352.8311150594906" cy="160.90840239001673" opacity="0.44761218308753914"></circle><circle r="7.465942896276552" cx="767.1784061541223" cy="501.29787472005074" opacity="0.3327241547550527"></circle><circle r="7.006336359730465" cx="162.2915776883886" cy="458.6252057057351" opacity="0.4942261756580545"></circle><circle r="8.718378842757684" cx="236.92324846178008" cy="594.0092203944904" opacity="0.5665997269256502"></circle><circle r="11.151236896149477" cx="692.8156522702917" cy="486.1995146838303" opacity="0.4185983994836724"></circle><circle r="9.028482446025897" cx="418.99614962938057" cy="433.08762431485786" opacity="0.6669113006655935"></circle><circle r="4.531283261958609" cx="741.9448815951437" cy="260.363521767624" opacity="0.9731640755098353"></circle><circle r="3.9571977755909646" cx="326.84984130896987" cy="560.8620811375741" opacity="0.30813672254735014"></circle><circle r="10.039440738337753" cx="650.1707665961956" cy="193.86467434656893" opacity="0.8524646355357224"></circle><circle r="9.984473263521924" cx="322.3340360713128" cy="777.6778324023309" opacity="0.9803372854669059"></circle><circle r="3.8266564585671414" cx="764.3918922816239" cy="408.48769812963906" opacity="0.10302476553258885"></circle><circle r="8.547645301521088" cx="118.8189209965869" cy="18.90914994083503" opacity="0.9159853285735697"></circle><circle r="5.1224798898050645" cx="344.53338408215274" cy="273.559102568037" opacity="0.4172206357850273"></circle><circle r="7.6456890050202775" cx="265.6945904534391" cy="396.09061553262524" opacity="0.40757755320616695"></circle><circle r="10.585535956879518" cx="776.4374020890061" cy="79.53740469425789" opacity="0.5762068344725652"></circle><circle r="6.3151498699764765" cx="203.54205342145974" cy="30.046526470211635" opacity="0.6025394591020229"></circle><circle r="8.18294827572333" cx="413.1406370313604" cy="580.5766869724785" opacity="0.3848915590230676"></circle><circle r="8.208741503185392" cx="116.7074211330055" cy="390.7471268171592" opacity="0.6398374472050162"></circle><circle r="4.8462678047923" cx="43.05852139301349" cy="423.5298889275693" opacity="0.39033080530563835"></circle><circle r="9.06217323827398" cx="459.1441939123253" cy="687.7583381403864" opacity="0.5724926016817429"></circle><circle r="6.6424171301355175" cx="424.68091685385536" cy="14.553332769041866" opacity="0.5667564188592971"></circle><circle r="5.145310676297658" cx="666.5293972432132" cy="780.5208281803788" opacity="0.894298683959903"></circle><circle r="6.651501532065216" cx="191.0397376853351" cy="302.21063082528104" opacity="0.8429127633680829"></circle><circle r="4.871302469062197" cx="211.09006380411813" cy="505.29251332207997" opacity="0.27974702379717126"></circle><circle r="7.762984392170133" cx="737.8472487436121" cy="357.2916438153041" opacity="0.44626032727880927"></circle><circle r="6.673266803889463" cx="380.3696584895663" cy="398.5423887094221" opacity="0.8791119984332965"></circle><circle r="5.52427695480488" cx="278.411516559672" cy="720.9803016724017" opacity="0.46387513467793906"></circle><circle r="8.921917517320674" cx="618.383313908262" cy="358.6747572782156" opacity="0.7855068304719101"></circle><circle r="6.467614441836579" cx="51.50530754594411" cy="110.67539810664232" opacity="0.33875482125353984"></circle><circle r="6.6988954498254945" cx="281.9750565536204" cy="64.0524561080318" opacity="0.9674366019195557"></circle><circle r="6.822699979272521" cx="344.02084307647567" cy="361.068290649389" opacity="0.14481371493521616"></circle><circle r="7.358613332216595" cx="51.93590520220064" cy="226.4922745297913" opacity="0.27961307644286076"></circle><circle r="7.695304009897838" cx="204.89639483555757" cy="81.27032825129295" opacity="0.15262154440495193"></circle><circle r="5.396397219086275" cx="645.0194303140648" cy="454.0126803882368" opacity="0.30583863056957517"></circle><circle r="7.069238577059698" cx="576.9916913751887" cy="104.03901289791375" opacity="0.24281522762496283"></circle><circle r="5.457880188180977" cx="785.932240671783" cy="138.45683388849073" opacity="0.30456443807653644"></circle><circle r="6.485364163356069" cx="783.9538459242876" cy="469.78130997111515" opacity="0.5711519386357947"></circle><circle r="9.329598228951117" cx="289.61262239586307" cy="484.7743643114931" opacity="0.4519325586335141"></circle><circle r="4.714644378352832" cx="285.006142583432" cy="366.52704140294753" opacity="0.48201622774450814"></circle><circle r="8.175079772582395" cx="206.64805753976395" cy="622.8683258926258" opacity="0.6712353445374174"></circle><circle r="7.030500624026489" cx="474.54174799734136" cy="313.0116275119991" opacity="0.9801090601054548"></circle><circle r="3.4782838628431607" cx="290.66802039313075" cy="12.581186637004993" opacity="0.9127697157661518"></circle><circle r="5.833619238976237" cx="741.9245389096847" cy="305.8723389401105" opacity="0.45975821809531614"></circle><circle r="9.32458722434245" cx="588.4458157700562" cy="148.9357105974011" opacity="0.16463174763364669"></circle><circle r="5.443401826932057" cx="17.08046624522292" cy="647.6624854884743" opacity="0.18014125811619525"></circle><circle r="8.933648334287351" cx="81.38273980903766" cy="182.4275582908146" opacity="0.7237444008305257"></circle><circle r="5.379552122960679" cx="85.41892699974333" cy="259.5032946830553" opacity="0.4387045032491329"></circle><circle r="8.814898971363283" cx="710.8929515834096" cy="703.3579588532054" opacity="0.7803714974175212"></circle><circle r="5.339065059551391" cx="228.56708510914632" cy="546.6359273104463" opacity="0.10649435225670348"></circle><circle r="4.505431695464568" cx="354.3397188454549" cy="18.87245475327486" opacity="0.8969392412671678"></circle><circle r="6.061211912347646" cx="183.47554766421158" cy="386.46002034736074" opacity="0.3797465271975996"></circle><circle r="8.738131132612803" cx="400.4233491255545" cy="156.3051031021064" opacity="0.9398446113040407"></circle></g></svg>