<svg xmlns="http://www.w3.org/2000/svg" version="1.1" xmlns:xlink="http://www.w3.org/1999/xlink" xmlns:svgjs="http://svgjs.dev/svgjs" viewBox="0 0 800 800"><defs><filter id="uuunion-blur" x="-100%" y="-100%" width="400%" height="400%" color-interpolation-filters="sRGB">
        <feGaussianBlur in="SourceGraphic" stdDeviation="4.5 4.5" result="blur"></feGaussianBlur>
        <feDropShadow stdDeviation="0" in="blur" dx="0" dy="0" flood-color="#cfc2b3" flood-opacity="0" x="0%" y="0%" width="100%" height="100%"></feDropShadow>
      </filter><filter id="uuunion-blur2" x="-100%" y="-100%" width="400%" height="400%" color-interpolation-filters="sRGB">
        <feGaussianBlur in="SourceGraphic" stdDeviation="4.5 4.5" result="blur"></feGaussianBlur>
        <feDropShadow stdDeviation="0" in="blur" dx="-0" dy="-0" flood-color="#cfc2b3" flood-opacity="0" x="0%" y="0%" width="100%" height="100%"></feDropShadow>
      </filter><linearGradient gradientTransform="rotate(186, 0.5, 0.5)" x1="50%" y1="0%" x2="50%" y2="100%" id="uuunion-grad"><stop stop-color="#f7dfc3" offset="10%"></stop><stop stop-color="#cfc2b3" offset="90%"></stop></linearGradient><linearGradient gradientTransform="rotate(62, 0.5, 0.5)" x1="50%" y1="0%" x2="50%" y2="100%" id="uuunion-grad2"><stop stop-color="#f7dfc3" offset="25%"></stop><stop stop-color="#cfc2b3" offset="100%"></stop></linearGradient><linearGradient gradientTransform="rotate(300, 0.5, 0.5)" x1="50%" y1="0%" x2="50%" y2="100%" id="uuunion-grad3"><stop stop-color="#f7dfc3" offset="0%"></stop><stop stop-color="#cfc2b3" offset="75%"></stop></linearGradient></defs><path d="M-79.02 -81.16Q-64.38 -78.33 -49.75 -75.67 -35.12 -73.45 -20.48 -71.89 -5.85 -71.15 8.77 -71.3 23.41 -72.32 38.04 -74.13 52.67 -76.52 67.31 -79.27 81.94 -82.09 96.58 -84.7 111.21 -86.83 125.84 -88.27 140.48 -88.88 155.11 -88.59 169.74 -87.43 184.38 -85.52 199.01 -83.05 213.64 -80.28 228.28 -77.47 242.91 -74.92 257.55 -72.88 272.18 -71.56 286.81 -71.1 301.45 -71.53 316.08 -72.81 330.71 -74.82 345.35 -77.36 359.98 -80.16 374.61 -82.94 389.25 -85.43 403.88 -87.37 418.52 -88.56 433.15 -88.89 447.78 -88.32 462.42 -86.91 477.05 -84.8 491.68 -82.2 506.32 -79.39 520.95 -76.63 535.58 -74.22 550.22 -72.38 564.85 -71.32 579.49 -71.13 594.12 -71.84 608.75 -73.37 623.39 -75.57 638.02 -78.22 652.65 -81.04 667.29 -83.76 681.92 -86.1 696.55 -87.83 711.19 -88.76 725.82 -88.8 740.45 -87.96 755.09 -86.31 769.72 -84.03 784.36 -81.33 798.99 -78.51 813.62 -75.83 828.26 -73.57 842.89 -71.96 857.52 -71.17 859.48 -55.96 862.75 -40.76 867.14 -25.55 872.35 -10.35 878.05 4.85 883.87 20.05 889.45 35.26 894.42 50.46 898.46 65.67 901.32 80.87 902.8 96.07 902.82 111.28 901.37 126.48 898.54 141.69 894.53 156.89 889.58 172.1 884.01 187.3 878.19 202.51 872.48 217.71 867.25 232.92 862.85 248.12 859.54 263.33 857.55 278.53 857.01 293.73 857.94 308.94 860.29 324.14 863.91 339.35 868.56 354.55 873.94 369.76 879.72 384.96 885.51 400.17 890.95 415.37 895.68 430.58 899.41 445.78 901.89 460.99 902.96 476.19 902.55 491.39 900.69 506.6 897.51 521.8 893.19 537.01 888.03 552.21 882.35 567.42 876.52 582.62 870.92 597.83 865.89 613.03 861.78 628.24 858.83 643.44 857.25 658.65 857.12 673.85 858.47 689.05 861.2 704.26 865.14 719.46 870.04 734.67 875.57 749.87 881.39 765.08 887.12 780.28 892.39 795.49 896.87 810.69 900.26 825.9 902.34 841.1 902.99 856.31 902.16 871.51 899.91 886.71 896.38 901.92 881.11 899.94 865.84 895.95 850.58 890.34 835.31 883.69 820.04 876.67 804.77 869.98 789.51 864.31 774.24 860.21 758.97 858.12 743.71 858.24 728.44 860.55 713.17 864.83 697.9 870.64 682.64 877.39 667.37 884.41 652.1 890.98 636.84 896.44 621.57 900.24 606.3 902 591.03 901.53 575.77 898.89 560.5 894.34 545.23 888.34 529.97 881.5 514.7 874.51 499.43 868.07 484.17 862.83 468.9 859.33 453.63 857.92 438.36 858.73 423.1 861.69 407.83 866.5 392.56 872.68 377.3 879.59 362.03 886.54 346.76 892.83 331.49 897.83 316.23 901.02 300.96 902.09 285.69 900.93 270.43 897.66 255.16 892.6 239.89 886.26 224.62 879.3 209.36 872.4 194.09 866.27 178.82 861.53 163.56 858.65 148.29 857.93 133.02 859.44 117.75 863.02 102.49 868.31 87.22 874.79 71.95 881.79 56.69 888.61 41.42 894.56 26.15 899.04 10.89 901.6 -4.37 901.97 -19.64 900.12 -34.91 896.25 -50.17 890.73 -65.44 884.12 -80.71 877.1 -80.86 862.13 -80.96 847.15 -80.99 832.18 -80.97 817.21 -80.88 802.24 -80.73 787.26 -80.53 772.29 -80.3 757.32 -80.06 742.34 -79.8 727.37 -79.56 712.4 -79.35 697.43 -79.18 682.45 -79.06 667.48 -79 652.51 -79.01 637.53 -79.07 622.56 -79.2 607.59 -79.38 592.61 -79.6 577.64 -79.84 562.67 -80.1 547.7 -80.34 532.72 -80.57 517.75 -80.76 502.78 -80.89 487.8 -80.98 472.83 -80.99 457.86 -80.95 442.88 -80.84 427.91 -80.68 412.94 -80.47 397.97 -80.23 382.99 -79.98 368.02 -79.73 353.05 -79.5 338.07 -79.3 323.1 -79.14 308.13 -79.04 293.15 -79 278.18 -79.02 263.21 -79.11 248.24 -79.25 233.26 -79.44 218.29 -79.67 203.32 -79.92 188.34 -80.17 173.37 -80.41 158.4 -80.63 143.42 -80.8 128.45 -80.92 113.48 -80.99 98.51 -80.99 83.53 -80.92 68.56 -80.8 53.59 -80.62 38.61 -80.41 23.64 -80.16 8.67 -79.91 -6.3 -79.66 -21.27 -79.44 -36.24 -79.25 -51.21 -79.1 -66.19 -79.02 -81.16" fill="url(#uuunion-grad)"></path><path d="M-79.02 -81.16Q-79.1 -66.19 -79.25 -51.21 -79.44 -36.24 -79.66 -21.27 -79.91 -6.3 -80.16 8.67 -80.41 23.64 -80.62 38.61 -80.8 53.59 -80.92 68.56 -80.99 83.53 -80.99 98.51 -80.92 113.48 -80.8 128.45 -80.63 143.42 -80.41 158.4 -80.17 173.37 -79.92 188.34 -79.67 203.32 -79.44 218.29 -79.25 233.26 -79.11 248.24 -79.02 263.21 -79 278.18 -79.04 293.15 -79.14 308.13 -79.3 323.1 -79.5 338.07 -79.73 353.05 -79.98 368.02 -80.23 382.99 -80.47 397.97 -70.35 401.26 -60.23 404.49 -50.11 407.52 -40 410.21 -29.88 412.44 -19.76 414.11 -0.79 415.4 2.49 415.48 14.97 408.44 27.39 400.38 39.74 391.44 52.03 381.82 64.24 371.77 76.39 361.55 88.48 351.44 100.52 341.71 112.5 332.59 124.45 324.29 136.36 316.93 148.26 310.58 160.14 305.23 172.03 300.82 183.93 297.19 195.86 294.17 207.83 291.51 219.85 288.96 231.93 286.27 244.09 283.18 256.33 279.48 268.66 275.01 281.1 269.64 293.65 263.33 306.31 256.09 319.1 248 332 239.21 345.02 229.89 358.17 220.28 371.43 210.6 384.8 201.1 398.28 192 411.85 183.5 425.5 175.73 439.23 168.81 453.01 162.76 466.83 157.56 480.67 153.13 494.52 149.32 508.36 145.96 522.17 142.83 535.93 139.73 549.62 136.43 563.22 132.72 576.71 128.44 590.08 123.45 603.31 117.69 616.38 111.12 629.28 103.78 642 95.76 654.53 87.2 666.86 78.25 678.98 69.12 690.9 60.01 702.61 51.11 714.11 42.62 725.42 34.67 736.54 27.38 747.47 20.82 758.24 14.98 768.86 9.83 779.34 5.28 789.71 1.21 800 -2.54 793.86 -19.98 788.26 -37.42 783.68 -54.86 780.53 -72.3 779.08 -89.74 779.45 -107.17 781.62 -124.61 785.4 -142.05 770.75 -144.38 756.1 -146.28 741.45 -147.55 726.81 -148.06 712.16 -147.77 697.51 -146.71 682.87 -144.97 668.22 -142.74 653.57 -140.23 638.92 -137.71 624.28 -135.4 609.63 -133.56 594.98 -132.36 580.34 -131.92 565.69 -132.29 551.04 -133.42 536.39 -135.21 521.75 -137.48 507.1 -140 492.45 -142.52 477.8 -144.78 463.16 -146.57 448.51 -147.7 433.86 -148.07 419.22 -147.63 404.57 -146.43 389.92 -144.58 375.27 -142.28 360.63 -139.75 345.98 -137.25 331.33 -135.02 316.69 -133.28 302.04 -132.22 287.39 -131.93 272.74 -132.44 258.1 -133.71 243.45 -135.61 228.8 -137.94 214.16 -140.48 199.51 -142.97 184.86 -145.16 170.21 -146.84 155.57 -147.83 140.92 -148.05 126.27 -147.46 111.63 -146.12 96.98 -144.18 82.33 -141.81 67.68 -139.27 53.04 -136.8 38.39 -134.64 23.74 -133.02 9.1 -132.1 -5.54 -131.96 -20.19 -132.63 -34.84 -134.03 -49.48 -136.02 -64.13 -138.41 -78.78 -140.96 -93.42 -143.41 -108.07 -145.52 -122.72 -147.08 -132.16 -134.66 -115.15 -116.74 -106.07 -108.17 -97.03 -99.35 -88.02 -90.33 -79.02 -81.16" fill="url(#uuunion-grad2)" filter="url(#uuunion-blur)"></path><path d="M810 396.05Q820.12 399.3 830.24 402.59 840.36 405.76 850.47 408.66 860.59 411.18 870.71 413.2 880.83 414.61 890.95 415.37 895.68 430.58 899.41 445.78 901.89 460.99 902.96 476.19 902.55 491.39 900.69 506.6 897.51 521.8 893.19 537.01 888.03 552.21 882.35 567.42 876.52 582.62 870.92 597.83 865.89 613.03 861.78 628.24 858.83 643.44 857.25 658.65 857.12 673.85 858.47 689.05 861.2 704.26 865.14 719.46 870.04 734.67 875.57 749.87 881.39 765.08 887.12 780.28 892.39 795.49 896.87 810.69 900.26 825.9 902.34 841.1 902.99 856.31 902.16 871.51 899.91 886.71 896.38 901.92 882.37 900.18 868.36 896.73 854.34 891.85 840.33 885.96 826.32 879.56 812.31 873.2 798.3 867.42 784.29 862.7 770.28 859.47 756.27 857.98 742.26 858.36 728.25 860.59 714.24 864.47 700.23 869.68 686.22 875.76 672.21 882.2 658.19 888.45 644.18 893.99 630.17 898.33 616.16 901.11 602.15 902.09 588.14 901.19 574.13 898.49 560.12 894.21 546.11 888.72 532.1 882.48 518.09 876.04 504.08 869.93 490.07 864.68 476.05 860.73 462.04 858.42 448.03 857.96 434.02 859.36 420.01 862.53 406 867.18 391.99 872.93 377.98 879.27 363.97 885.68 349.96 891.61 335.95 896.54 321.94 900.07 307.93 901.88 293.92 901.83 279.9 899.93 265.89 896.32 251.88 891.32 237.87 885.36 223.86 878.95 209.85 872.62 195.84 866.92 181.83 862.33 167.82 859.25 153.81 857.93 139.8 858.5 125.79 860.89 111.78 864.91 97.76 870.22 83.75 876.36 69.74 882.81 55.73 889.02 41.72 894.46 27.71 898.67 6.75 896.62 -0.11 881.82 -0.06 871.68 -0.02 861.54 -0.02 851.4 -0.05 841.27 0.11 826.06 0.83 821 13.51 813.92 26.14 805.45 38.71 795.73 51.21 785.02 63.64 773.65 76 761.98 88.29 750.39 100.5 739.26 112.65 728.92 124.72 719.65 136.73 711.66 148.69 705.05 160.6 699.85 172.46 695.96 184.3 693.2 196.12 691.33 207.93 690.03 219.75 688.95 231.58 687.72 243.45 685.99 255.36 683.45 267.33 679.85 279.37 675.01 291.5 668.84 303.71 661.35 316.04 652.64 328.47 642.89 341.02 632.36 353.7 621.35 366.52 610.2 379.46 599.26 392.54 588.85 405.75 579.26 419.09 570.72 432.55 563.37 446.13 557.29 459.81 552.44 473.59 548.72 487.45 545.94 501.38 543.85 515.36 542.15 529.37 540.52 543.39 538.63 557.41 536.17 571.4 532.9 585.34 528.61 599.22 523.17 613.01 516.54 626.69 508.75 640.25 499.92 653.66 490.26 666.91 480 679.98 469.43 692.87 458.85 705.55 448.58 718.02 438.88 730.28 430 742.31 422.11 754.12 415.32 765.71 409.64 777.08 405.03 788.25 401.37 804.61 397.25 810 396.05" fill="url(#uuunion-grad3)" filter="url(#uuunion-blur2)"></path></svg>